<?xml version="1.0" encoding="UTF-8"?>
<svg id="_레이어_1" xmlns="http://www.w3.org/2000/svg" version="1.1" viewBox="0 0 34 34">
  <!-- Generator: Adobe Illustrator 29.1.0, SVG Export Plug-In . SVG Version: 2.1.0 Build 142)  -->
  <path fill="#FFFFFF" d="M14.8,11.2c2,0,3.7,1.6,3.7,3.7s-1.6,3.7-3.7,3.7-3.7-1.6-3.7-3.7,1.6-3.7,3.7-3.7M14.8,8.9c-3.3,0-5.9,2.6-5.9,5.9s2.6,5.9,5.9,5.9,5.9-2.6,5.9-5.9-2.6-5.9-5.9-5.9h0Z"/>
  <path fill="#FFFFFF" d="M23.7,25.1c-.4,0-.7-.1-1-.4l-4.7-4.7c-.6-.6-.6-1.4,0-2s1.4-.6,2,0l4.7,4.7c.6.6.6,1.4,0,2s-.6.4-1,.4Z"/>
</svg>